<?xml version="1.0" encoding="UTF-8" standalone="no"?>
<!-- Created with Inkscape (http://www.inkscape.org/) -->

<svg
   width="300mm"
   height="300mm"
   viewBox="0 0 300.00001 300.00001"
   version="1.1"
   id="svg1"
   inkscape:version="1.4.2 (ebf0e940d0, 2025-05-08)"
   sodipodi:docname="r2.svg"
   xml:space="preserve"
   xmlns:inkscape="http://www.inkscape.org/namespaces/inkscape"
   xmlns:sodipodi="http://sodipodi.sourceforge.net/DTD/sodipodi-0.dtd"
   xmlns="http://www.w3.org/2000/svg"
   xmlns:svg="http://www.w3.org/2000/svg"><sodipodi:namedview
     id="namedview1"
     pagecolor="#ffffff"
     bordercolor="#000000"
     borderopacity="0.25"
     inkscape:showpageshadow="2"
     inkscape:pageopacity="0.0"
     inkscape:pagecheckerboard="0"
     inkscape:deskcolor="#d1d1d1"
     inkscape:document-units="mm"
     inkscape:zoom="0.43367149"
     inkscape:cx="342.4251"
     inkscape:cy="787.46243"
     inkscape:window-width="2048"
     inkscape:window-height="1080"
     inkscape:window-x="0"
     inkscape:window-y="0"
     inkscape:window-maximized="1"
     inkscape:current-layer="layer1" /><defs
     id="defs1" /><g
     inkscape:label="Layer 1"
     inkscape:groupmode="layer"
     id="layer1"
     transform="translate(-1.0551983,-44.446865)"><rect
       style="display:inline;fill:#000000;fill-opacity:1;stroke:none;stroke-width:5.5364;stroke-linecap:round;stroke-opacity:1"
       id="rect3"
       width="300"
       height="300"
       x="1.0551983"
       y="44.446865"
       inkscape:label="bg" /><g
       id="g1"
       inkscape:label="guides"
       style="display:none"><path
         id="rect3-5"
         style="display:inline;fill:#ff00ba;fill-opacity:1;stroke:none;stroke-width:3.18521;stroke-linecap:round;stroke-opacity:1"
         inkscape:label="column1"
         d="m 1.0551983,44.974305 c 0,99.824175 0,199.648375 0,299.472555 33.3333347,0 66.6666667,0 100.0000017,0 0,-100 0,-200 0,-299.999991 -33.333335,0 -66.666667,0 -100.0000017,0 0,0.175812 0,0.351624 0,0.527436 z" /><path
         id="rect3-5-0"
         style="display:inline;fill:#9f00ff;fill-opacity:1;stroke:none;stroke-width:3.18521;stroke-linecap:round;stroke-opacity:1"
         inkscape:label="column3"
         d="m 201.0552,44.974304 c 0,99.824176 0,199.648376 0,299.472556 33.33333,0 66.66666,0 100,0 0,-100 0,-200 0,-299.999992 -33.33334,0 -66.66667,0 -100,0 0,0.175812 0,0.351624 0,0.527436 z" /><path
         id="rect3-5-0-8"
         style="display:inline;fill:#000000;fill-opacity:1;stroke:none;stroke-width:3.18521;stroke-linecap:round;stroke-opacity:1"
         inkscape:label="column2"
         d="m 101.0552,44.974301 c 0,99.824179 0,199.648379 0,299.472559 33.33333,0 66.66666,0 100,0 0,-100 0,-200 0,-299.999995 -33.33334,0 -66.66667,0 -100,0 0,0.175812 0,0.351624 0,0.527436 z" /></g><path
       id="path9-9-6"
       style="fill:#ffffff;fill-opacity:1;stroke:none;stroke-width:14.1641;stroke-linecap:round;stroke-linejoin:round;stroke-dasharray:none;stroke-opacity:1"
       d="M 51.79443,83.322671 11.37395,194.44684 51.79441,305.57106 92.21492,194.44686 51.79443,83.322671"
       sodipodi:nodetypes="ccccc"
       inkscape:label="lnode" /><path
       id="path9-9"
       style="fill:#ffffff;fill-opacity:1;stroke:none;stroke-width:14.1641;stroke-linecap:round;stroke-linejoin:round;stroke-dasharray:none;stroke-opacity:1"
       d="M 251.0552,83.322673 210.63472,194.44684 251.05518,305.57106 291.47569,194.44686 251.0552,83.322673"
       sodipodi:nodetypes="ccccc"
       inkscape:label="lnode" /><g
       id="g3"
       transform="matrix(0.80486122,0,0,1.0273921,37.349,53.526007)"
       inkscape:label="eq"
       style="display:inline;fill:#ffffff;fill-opacity:1"><rect
         style="opacity:1;fill:#ffffff;fill-opacity:1;stroke-width:3.60438;stroke-linecap:round"
         id="rect2"
         width="124.17226"
         height="12.941685"
         x="79.224548"
         y="149.36247"
         inkscape:label="deq" /><rect
         style="fill:#ffffff;fill-opacity:1;stroke-width:3.60438;stroke-linecap:round"
         id="rect2-6"
         width="124.17226"
         height="12.941685"
         x="79.151779"
         y="112.02316"
         inkscape:label="ueq" /></g></g></svg>
